<svg width="22" height="21" viewBox="0 0 22 21" fill="none" xmlns="http://www.w3.org/2000/svg">
<path d="M19.83 6.62718L13.28 1.38718C12 0.367175 9.99999 0.357175 8.72999 1.37718L2.17999 6.62718C1.23999 7.37718 0.669993 8.87717 0.869993 10.0572L2.12999 17.5972C2.41999 19.2872 3.98999 20.6172 5.69999 20.6172H16.3C17.99 20.6172 19.59 19.2572 19.88 17.5872L21.14 10.0472C21.32 8.87718 20.75 7.37718 19.83 6.62718ZM11.75 16.6172C11.75 17.0272 11.41 17.3672 11 17.3672C10.59 17.3672 10.25 17.0272 10.25 16.6172V13.6172C10.25 13.2072 10.59 12.8672 11 12.8672C11.41 12.8672 11.75 13.2072 11.75 13.6172V16.6172Z" fill="#1863D3"/>
</svg>
