<svg width="22" height="21" viewBox="0 0 22 21" fill="none" xmlns="http://www.w3.org/2000/svg">
<path d="M21 15.3572V3.28719C21 2.08719 20.02 1.19719 18.83 1.29719H18.77C16.67 1.47719 13.48 2.54719 11.7 3.66719L11.53 3.77719C11.24 3.95719 10.76 3.95719 10.47 3.77719L10.22 3.62719C8.44 2.51719 5.26 1.45719 3.16 1.28719C1.97 1.18719 1 2.08719 1 3.27719V15.3572C1 16.3172 1.78 17.2172 2.74 17.3372L3.03 17.3772C5.2 17.6672 8.55 18.7672 10.47 19.8172L10.51 19.8372C10.78 19.9872 11.21 19.9872 11.47 19.8372C13.39 18.7772 16.75 17.6672 18.93 17.3772L19.26 17.3372C20.22 17.2172 21 16.3172 21 15.3572Z" stroke="#9299A2" stroke-width="1.5" stroke-linecap="round" stroke-linejoin="round"/>
</svg>
